<svg width="94" height="95" viewBox="0 0 94 95" fill="none" xmlns="http://www.w3.org/2000/svg">
<rect x="1.32601" y="2.32601" width="91.348" height="91.3479" stroke="#BBBBBB" stroke-width="2.65201"/>
<line y1="-1.32601" x2="131.368" y2="-1.32601" transform="matrix(0.712928 0.701237 -0.130841 0.991403 0 2.87997)" stroke="#BBBBBB" stroke-width="2.65201"/>
<line y1="-1.32601" x2="131.368" y2="-1.32601" transform="matrix(0.712928 -0.701237 0.130841 0.991403 0.344299 94.9999)" stroke="#BBBBBB" stroke-width="2.65201"/>
<rect width="23.5332" height="26.938" transform="translate(35.3149 35.7358)" fill="white"/>
<path d="M13.4867 37.4443V60.2048H10.386V37.4443H13.4867ZM37.3446 44.7014H34.2329C34.0847 43.9383 33.818 43.2641 33.4327 42.6788C33.0548 42.0935 32.5881 41.6008 32.0324 41.2007C31.4841 40.8006 30.8729 40.5005 30.1986 40.3005C29.5244 40.093 28.8206 39.9893 28.0871 39.9893C26.7386 39.9893 25.5273 40.3301 24.453 41.0117C23.3786 41.686 22.5266 42.6825 21.8968 44.0013C21.2745 45.3127 20.9633 46.9204 20.9633 48.8246C20.9633 50.7361 21.2745 52.3512 21.8968 53.6701C22.5266 54.9814 23.3786 55.9743 24.453 56.6485C25.5273 57.3227 26.7349 57.6598 28.076 57.6598C28.8169 57.6598 29.5207 57.5598 30.1875 57.3597C30.8618 57.1523 31.473 56.8522 32.0213 56.4595C32.5769 56.0595 33.0437 55.5705 33.4216 54.9926C33.8068 54.4072 34.0773 53.7367 34.2329 52.981H37.3446C37.152 54.1294 36.7853 55.1667 36.2444 56.0928C35.7035 57.0189 35.0219 57.8117 34.1995 58.4711C33.3845 59.1305 32.4584 59.638 31.4211 59.9936C30.3839 60.3419 29.2651 60.516 28.0649 60.516C26.1089 60.516 24.3678 60.0455 22.8415 59.1046C21.3152 58.1562 20.115 56.8115 19.2407 55.0704C18.3664 53.3218 17.9293 51.2399 17.9293 48.8246C17.9293 46.4092 18.3664 44.3273 19.2407 42.5788C20.1224 40.8302 21.3264 39.4855 22.8526 38.5445C24.3789 37.6036 26.1163 37.1331 28.0649 37.1331C29.2429 37.1331 30.3468 37.3035 31.3767 37.6443C32.4065 37.9852 33.3327 38.4816 34.1551 39.1336C34.9849 39.7856 35.6739 40.5783 36.2222 41.5119C36.7704 42.4454 37.1446 43.5086 37.3446 44.7014ZM61.1137 48.8246C61.1137 51.2399 60.6729 53.3218 59.7912 55.0704C58.9169 56.8189 57.713 58.1636 56.1793 59.1046C54.653 60.0455 52.9156 60.516 50.9671 60.516C49.0111 60.516 47.27 60.0455 45.7437 59.1046C44.2174 58.1562 43.0135 56.8115 42.1318 55.0704C41.2575 53.3218 40.8204 51.2399 40.8204 48.8246C40.8204 46.4092 41.2575 44.3273 42.1318 42.5788C43.0135 40.8302 44.2174 39.4855 45.7437 38.5445C47.27 37.6036 49.0111 37.1331 50.9671 37.1331C52.9156 37.1331 54.653 37.6036 56.1793 38.5445C57.713 39.4855 58.9169 40.8302 59.7912 42.5788C60.6729 44.3273 61.1137 46.4092 61.1137 48.8246ZM58.0797 48.8246C58.0797 46.913 57.7648 45.3016 57.1351 43.9902C56.5127 42.6788 55.6644 41.686 54.5901 41.0117C53.5158 40.3301 52.3081 39.9893 50.9671 39.9893C49.626 39.9893 48.4183 40.3301 47.344 41.0117C46.2697 41.686 45.4177 42.6788 44.7879 43.9902C44.1656 45.3016 43.8544 46.913 43.8544 48.8246C43.8544 50.7361 44.1656 52.3475 44.7879 53.6589C45.4177 54.9703 46.2697 55.9668 47.344 56.6485C48.4183 57.3227 49.626 57.6598 50.9671 57.6598C52.3081 57.6598 53.5158 57.3227 54.5901 56.6485C55.6644 55.9668 56.5127 54.9703 57.1351 53.6589C57.7648 52.3475 58.0797 50.7361 58.0797 48.8246ZM83.7658 37.4443V60.2048H80.8541L68.8626 42.9233H68.6514V60.2048H65.5508V37.4443H68.4847L80.4873 54.7592H80.7096V37.4443H83.7658Z" fill="#BBBBBB"/>
</svg>
