<svg width="807" height="469" viewBox="0 0 807 469" fill="none" xmlns="http://www.w3.org/2000/svg">
<path d="M30.093 63.9358H72.871L149.52 140.855L226.17 63.9358H268.948V274.857H226.17V123.177L149.52 196.993L72.871 123.177V274.857H30.093V63.9358ZM393.638 222.633L301.47 63.9358H349.916L414.825 183.903L478.924 63.9358H527.37L436.416 222.363V274.857H393.638V222.633ZM547.342 168.789C547.342 152.865 550.266 138.291 556.113 125.066C561.961 111.842 570.148 100.506 580.674 91.0599C591.289 81.5237 603.974 74.1467 618.728 68.9288C633.572 63.7108 649.991 61.1019 667.984 61.1019C685.887 61.1019 702.26 63.7108 717.104 68.9288C731.948 74.1467 744.633 81.5237 755.159 91.0599C765.775 100.506 774.006 111.842 779.854 125.066C785.702 138.291 788.626 152.865 788.626 168.789C788.626 184.803 785.702 199.512 779.854 212.916C774.006 226.231 765.775 237.701 755.159 247.328C744.633 256.954 731.948 264.466 717.104 269.864C702.26 275.172 685.887 277.826 667.984 277.826C649.991 277.826 633.572 275.172 618.728 269.864C603.974 264.466 591.289 256.954 580.674 247.328C570.148 237.701 561.961 226.231 556.113 212.916C550.266 199.512 547.342 184.803 547.342 168.789ZM590.12 168.789C590.12 179.675 592.054 189.481 595.922 198.207C599.881 206.934 605.324 214.401 612.251 220.608C619.268 226.726 627.5 231.449 636.946 234.778C646.482 238.106 656.828 239.771 667.984 239.771C679.139 239.771 689.44 238.106 698.886 234.778C708.423 231.449 716.654 226.726 723.582 220.608C730.509 214.401 735.952 206.934 739.91 198.207C743.869 189.481 745.848 179.675 745.848 168.789C745.848 157.903 743.869 148.142 739.91 139.506C735.952 130.869 730.509 123.582 723.582 117.644C716.654 111.617 708.423 107.029 698.886 103.88C689.44 100.731 679.139 99.1567 667.984 99.1567C656.828 99.1567 646.482 100.731 636.946 103.88C627.5 107.029 619.268 111.617 612.251 117.644C605.324 123.582 599.881 130.869 595.922 139.506C592.054 148.142 590.12 157.903 590.12 168.789Z" fill="url(#paint0_linear_119_31)"/>
<path d="M30.1378 314.584H90.7788C99.61 314.584 107.264 315.541 113.74 317.454C120.216 319.367 125.588 322.139 129.857 325.77C134.125 329.352 137.29 333.743 139.35 338.943C141.46 344.144 142.515 350.007 142.515 356.532C142.515 362.665 141.485 368.332 139.424 373.532C137.363 378.733 134.199 383.247 129.93 387.073C125.711 390.851 120.363 393.819 113.887 395.978C107.411 398.088 99.7571 399.143 90.9259 399.143L53.4669 399.069V429.61H30.1378V314.584ZM91.3675 378.904C95.7831 378.904 99.6345 378.389 102.922 377.359C106.258 376.28 109.03 374.783 111.238 372.87C113.495 370.907 115.163 368.552 116.242 365.805C117.371 363.008 117.935 359.917 117.935 356.532C117.935 349.712 115.702 344.414 111.238 340.636C106.822 336.809 100.199 334.896 91.3675 334.896H53.4669V378.904H91.3675ZM165.329 342.77H187.113V355.281C191.921 351.699 196.999 348.609 202.346 346.008C207.694 343.408 213.017 341.421 218.316 340.047L224.719 359.991C216.329 360.825 208.945 362.714 202.567 365.658C196.238 368.552 191.087 372.649 187.113 377.948V429.61H165.329V342.77ZM236.862 385.896C236.862 380.008 238.064 374.391 240.468 369.043C242.872 363.646 246.331 358.887 250.844 354.766C255.358 350.645 260.878 347.357 267.403 344.904C273.977 342.451 281.435 341.225 289.775 341.225C298.067 341.225 305.524 342.476 312.148 344.978C318.82 347.431 324.462 350.816 329.074 355.134C333.735 359.451 337.292 364.529 339.745 370.368C342.247 376.206 343.499 382.462 343.499 389.134C343.499 389.968 343.474 390.876 343.425 391.857C343.425 392.789 343.376 393.648 343.278 394.433H261.147C262.08 397.033 263.576 399.413 265.637 401.571C267.746 403.73 270.371 405.594 273.511 407.164C276.651 408.734 280.282 409.961 284.403 410.844C288.524 411.678 293.087 412.095 298.091 412.095C303.096 412.095 308.076 411.58 313.031 410.55C317.986 409.47 322.721 408.121 327.234 406.502L334.594 423.134C331.748 424.459 328.853 425.636 325.91 426.667C323.015 427.648 319.973 428.482 316.784 429.169C313.644 429.807 310.332 430.297 306.849 430.641C303.415 430.984 299.784 431.156 295.957 431.156C286.194 431.156 277.632 429.978 270.273 427.623C262.914 425.268 256.756 422.055 251.801 417.983C246.846 413.91 243.117 409.127 240.615 403.632C238.113 398.137 236.862 392.225 236.862 385.896ZM320.39 377.433C319.605 375.029 318.379 372.796 316.711 370.736C315.091 368.626 313.055 366.811 310.602 365.29C308.149 363.72 305.304 362.493 302.065 361.61C298.827 360.727 295.27 360.285 291.394 360.285C287.273 360.285 283.52 360.751 280.135 361.684C276.749 362.616 273.781 363.867 271.23 365.437C268.679 367.007 266.544 368.822 264.827 370.883C263.159 372.943 261.932 375.127 261.147 377.433H320.39ZM370.434 402.97C376.321 406.502 382.797 409.102 389.862 410.77C396.927 412.439 404.164 413.273 411.572 413.273C416.577 413.273 420.747 412.929 424.083 412.242C427.42 411.555 430.093 410.672 432.105 409.593C434.117 408.514 435.539 407.287 436.373 405.913C437.207 404.54 437.624 403.141 437.624 401.718C437.624 399.658 436.717 397.892 434.902 396.42C433.135 394.948 430.192 394.212 426.07 394.212C424.157 394.212 422.096 394.335 419.888 394.58C417.681 394.825 415.35 395.095 412.897 395.389C410.493 395.635 407.966 395.88 405.317 396.125C402.717 396.371 400.067 396.493 397.369 396.493C391.481 396.493 386.453 395.856 382.282 394.58C378.161 393.304 374.8 391.563 372.2 389.355C369.6 387.147 367.711 384.547 366.533 381.554C365.356 378.512 364.767 375.249 364.767 371.766C364.767 367.35 365.797 363.278 367.858 359.549C369.919 355.821 372.862 352.607 376.689 349.909C380.516 347.161 385.128 345.027 390.525 343.506C395.971 341.985 402.03 341.225 408.702 341.225C412.186 341.225 415.816 341.445 419.594 341.887C423.421 342.28 427.174 342.819 430.854 343.506C434.534 344.193 438.066 345.002 441.451 345.935C444.837 346.818 447.829 347.774 450.43 348.805L443.586 365.731C438.042 363.671 432.497 362.052 426.953 360.874C421.458 359.648 415.792 359.034 409.953 359.034C405.881 359.034 402.422 359.353 399.577 359.991C396.78 360.58 394.499 361.389 392.733 362.42C390.966 363.401 389.666 364.554 388.832 365.878C388.047 367.154 387.655 368.503 387.655 369.926C387.655 370.956 387.851 371.889 388.243 372.723C388.685 373.557 389.372 374.293 390.304 374.93C391.285 375.519 392.536 375.985 394.057 376.329C395.627 376.623 397.541 376.77 399.797 376.77C401.858 376.77 404.041 376.648 406.347 376.402C408.653 376.157 411.057 375.912 413.559 375.666C416.062 375.372 418.637 375.102 421.287 374.857C423.985 374.612 426.733 374.489 429.529 374.489C434.73 374.489 439.268 375.102 443.144 376.329C447.069 377.555 450.307 379.272 452.858 381.48C455.41 383.688 457.323 386.288 458.599 389.281C459.874 392.274 460.512 395.537 460.512 399.069C460.512 403.632 459.457 407.876 457.348 411.801C455.238 415.726 452.098 419.136 447.928 422.03C443.757 424.876 438.557 427.108 432.326 428.727C426.144 430.346 418.981 431.156 410.836 431.156C405.832 431.156 401 430.837 396.339 430.199C391.678 429.61 387.238 428.801 383.018 427.771C378.799 426.691 374.825 425.44 371.096 424.017C367.416 422.594 364.056 421.074 361.014 419.454L370.434 402.97ZM476.04 385.896C476.04 380.008 477.242 374.391 479.646 369.043C482.05 363.646 485.509 358.887 490.023 354.766C494.537 350.645 500.056 347.357 506.582 344.904C513.156 342.451 520.613 341.225 528.954 341.225C537.245 341.225 544.703 342.476 551.326 344.978C557.999 347.431 563.641 350.816 568.253 355.134C572.914 359.451 576.471 364.529 578.924 370.368C581.426 376.206 582.677 382.462 582.677 389.134C582.677 389.968 582.653 390.876 582.603 391.857C582.603 392.789 582.554 393.648 582.456 394.433H500.326C501.258 397.033 502.755 399.413 504.815 401.571C506.925 403.73 509.55 405.594 512.69 407.164C515.83 408.734 519.46 409.961 523.582 410.844C527.703 411.678 532.266 412.095 537.27 412.095C542.274 412.095 547.254 411.58 552.209 410.55C557.165 409.47 561.899 408.121 566.413 406.502L573.772 423.134C570.927 424.459 568.032 425.636 565.088 426.667C562.194 427.648 559.152 428.482 555.963 429.169C552.823 429.807 549.511 430.297 546.028 430.641C542.593 430.984 538.963 431.156 535.136 431.156C525.372 431.156 516.811 429.978 509.452 427.623C502.092 425.268 495.935 422.055 490.98 417.983C486.024 413.91 482.296 409.127 479.794 403.632C477.291 398.137 476.04 392.225 476.04 385.896ZM559.569 377.433C558.784 375.029 557.557 372.796 555.889 370.736C554.27 368.626 552.234 366.811 549.781 365.29C547.328 363.72 544.482 362.493 541.244 361.61C538.006 360.727 534.449 360.285 530.573 360.285C526.452 360.285 522.698 360.751 519.313 361.684C515.928 362.616 512.96 363.867 510.408 365.437C507.857 367.007 505.723 368.822 504.006 370.883C502.338 372.943 501.111 375.127 500.326 377.433H559.569ZM606.153 342.77H627.937V350.129C633.726 346.842 639.246 344.536 644.496 343.212C649.794 341.887 654.97 341.225 660.024 341.225C666.647 341.225 672.78 342.206 678.422 344.168C684.064 346.082 688.946 348.952 693.067 352.779C697.188 356.606 700.402 361.389 702.708 367.13C705.063 372.821 706.24 379.42 706.24 386.926V429.61H684.53V390.459C684.53 385.7 683.843 381.456 682.47 377.727C681.145 373.949 679.207 370.785 676.656 368.233C674.154 365.633 671.087 363.671 667.457 362.346C663.875 360.972 659.852 360.285 655.387 360.285C653.032 360.285 650.604 360.531 648.102 361.021C645.648 361.512 643.22 362.223 640.816 363.156C638.461 364.039 636.179 365.167 633.972 366.541C631.764 367.865 629.752 369.386 627.937 371.104V429.61H606.153V342.77ZM746.128 359.108H725.154V342.77H746.128V315.761H767.912V342.77H788.886V359.108H767.912V429.61H746.128V359.108Z" fill="url(#paint1_linear_119_31)"/>
<defs>
<linearGradient id="paint0_linear_119_31" x1="403" y1="0.856685" x2="403" y2="345.857" gradientUnits="userSpaceOnUse">
<stop offset="0.2" stop-color="#CCB005"/>
<stop offset="0.496987" stop-color="#FBF1B9"/>
<stop offset="0.8" stop-color="#CCB005"/>
</linearGradient>
<linearGradient id="paint1_linear_119_31" x1="404" y1="280.857" x2="404" y2="468.857" gradientUnits="userSpaceOnUse">
<stop offset="0.15" stop-color="#CCB005"/>
<stop offset="0.5" stop-color="#FBF1B9"/>
<stop offset="0.85" stop-color="#CCB005"/>
</linearGradient>
</defs>
</svg>
