<svg width="362" height="133" viewBox="0 0 362 133" fill="none" xmlns="http://www.w3.org/2000/svg">
<rect x="1.32601" y="1.32601" width="359.348" height="129.949" stroke="#BBBBBB" stroke-width="2.65201"/>
<line x1="0.449469" y1="1.4045" x2="361.123" y2="131.353" stroke="#BBBBBB" stroke-width="2.65201"/>
<line x1="0.876519" y1="131.353" x2="361.551" y2="1.40451" stroke="#BBBBBB" stroke-width="2.65201"/>
<rect width="207.628" height="38" transform="translate(78 49)" fill="white"/>
<path d="M86.7141 79V56.2395H89.8148V76.2994H100.262V79H86.7141ZM122.955 67.6198C122.955 70.0351 122.515 72.117 121.633 73.8656C120.759 75.6141 119.555 76.9588 118.021 77.8998C116.495 78.8407 114.757 79.3112 112.809 79.3112C110.853 79.3112 109.112 78.8407 107.585 77.8998C106.059 76.9514 104.855 75.6067 103.973 73.8656C103.099 72.117 102.662 70.0351 102.662 67.6198C102.662 65.2044 103.099 63.1225 103.973 61.3739C104.855 59.6254 106.059 58.2807 107.585 57.3397C109.112 56.3988 110.853 55.9283 112.809 55.9283C114.757 55.9283 116.495 56.3988 118.021 57.3397C119.555 58.2807 120.759 59.6254 121.633 61.3739C122.515 63.1225 122.955 65.2044 122.955 67.6198ZM119.921 67.6198C119.921 65.7082 119.606 64.0968 118.977 62.7854C118.354 61.474 117.506 60.4812 116.432 59.8069C115.357 59.1253 114.15 58.7845 112.809 58.7845C111.468 58.7845 110.26 59.1253 109.186 59.8069C108.111 60.4812 107.259 61.474 106.63 62.7854C106.007 64.0968 105.696 65.7082 105.696 67.6198C105.696 69.5313 106.007 71.1427 106.63 72.4541C107.259 73.7655 108.111 74.762 109.186 75.4437C110.26 76.1179 111.468 76.455 112.809 76.455C114.15 76.455 115.357 76.1179 116.432 75.4437C117.506 74.762 118.354 73.7655 118.977 72.4541C119.606 71.1427 119.921 69.5313 119.921 67.6198ZM142.874 63.3966C142.644 62.6779 142.34 62.0371 141.962 61.474C141.584 60.9035 141.136 60.4182 140.618 60.0181C140.099 59.618 139.51 59.3142 138.85 59.1068C138.191 58.8919 137.465 58.7845 136.672 58.7845C135.353 58.7845 134.161 59.1253 133.094 59.8069C132.034 60.4812 131.19 61.474 130.56 62.7854C129.937 64.0968 129.626 65.7082 129.626 67.6198C129.626 69.5239 129.941 71.1353 130.571 72.4541C131.201 73.7655 132.056 74.762 133.138 75.4437C134.227 76.1179 135.457 76.455 136.828 76.455C138.095 76.455 139.206 76.1883 140.162 75.6548C141.125 75.1214 141.873 74.3694 142.407 73.3988C142.948 72.4282 143.218 71.2798 143.218 69.9536L144.085 70.1314H137.395V67.4864H146.208V69.998C146.208 71.8948 145.804 73.5396 144.996 74.9324C144.196 76.3253 143.088 77.4034 141.673 78.1665C140.266 78.9296 138.65 79.3112 136.828 79.3112C134.79 79.3112 133.001 78.837 131.46 77.8886C129.926 76.9403 128.73 75.5919 127.87 73.8433C127.018 72.0948 126.592 70.0203 126.592 67.6198C126.592 65.812 126.837 64.1894 127.326 62.752C127.822 61.3073 128.522 60.0774 129.426 59.0623C130.33 58.0473 131.393 57.2731 132.616 56.7396C133.846 56.1988 135.194 55.9283 136.661 55.9283C137.876 55.9283 139.01 56.1098 140.062 56.4729C141.114 56.8359 142.051 57.3471 142.874 58.0066C143.703 58.666 144.392 59.4513 144.941 60.3626C145.489 61.2739 145.863 62.2853 146.063 63.3966H142.874ZM170.235 67.6198C170.235 70.0351 169.794 72.117 168.913 73.8656C168.038 75.6141 166.834 76.9588 165.301 77.8998C163.774 78.8407 162.037 79.3112 160.088 79.3112C158.132 79.3112 156.391 78.8407 154.865 77.8998C153.339 76.9514 152.135 75.6067 151.253 73.8656C150.379 72.117 149.942 70.0351 149.942 67.6198C149.942 65.2044 150.379 63.1225 151.253 61.3739C152.135 59.6254 153.339 58.2807 154.865 57.3397C156.391 56.3988 158.132 55.9283 160.088 55.9283C162.037 55.9283 163.774 56.3988 165.301 57.3397C166.834 58.2807 168.038 59.6254 168.913 61.3739C169.794 63.1225 170.235 65.2044 170.235 67.6198ZM167.201 67.6198C167.201 65.7082 166.886 64.0968 166.256 62.7854C165.634 61.474 164.786 60.4812 163.711 59.8069C162.637 59.1253 161.429 58.7845 160.088 58.7845C158.747 58.7845 157.54 59.1253 156.465 59.8069C155.391 60.4812 154.539 61.474 153.909 62.7854C153.287 64.0968 152.976 65.7082 152.976 67.6198C152.976 69.5313 153.287 71.1427 153.909 72.4541C154.539 73.7655 155.391 74.762 156.465 75.4437C157.54 76.1179 158.747 76.455 160.088 76.455C161.429 76.455 162.637 76.1179 163.711 75.4437C164.786 74.762 165.634 73.7655 166.256 72.4541C166.886 71.1427 167.201 69.5313 167.201 67.6198ZM186.33 56.2395V79H183.23V56.2395H186.33ZM191.573 56.2395H195.307L202.798 74.5324H203.064L210.555 56.2395H214.289V79H211.355V62.1186H211.144L204.231 78.9778H201.631L194.718 62.1074H194.507V79H191.573V56.2395ZM220.971 79H217.704L225.983 56.2395H229.384L237.652 79H234.385L227.773 60.107H227.595L220.971 79ZM221.805 70.0981H233.54V72.7653H221.805V70.0981ZM255.495 63.3966C255.266 62.6779 254.962 62.0371 254.584 61.474C254.206 60.9035 253.758 60.4182 253.239 60.0181C252.721 59.618 252.132 59.3142 251.472 59.1068C250.813 58.8919 250.087 58.7845 249.294 58.7845C247.975 58.7845 246.782 59.1253 245.715 59.8069C244.656 60.4812 243.811 61.474 243.181 62.7854C242.559 64.0968 242.248 65.7082 242.248 67.6198C242.248 69.5239 242.563 71.1353 243.193 72.4541C243.822 73.7655 244.678 74.762 245.76 75.4437C246.849 76.1179 248.079 76.455 249.449 76.455C250.716 76.455 251.828 76.1883 252.784 75.6548C253.747 75.1214 254.495 74.3694 255.028 73.3988C255.569 72.4282 255.84 71.2798 255.84 69.9536L256.707 70.1314H250.016V67.4864H258.829V69.998C258.829 71.8948 258.426 73.5396 257.618 74.9324C256.818 76.3253 255.71 77.4034 254.295 78.1665C252.887 78.9296 251.272 79.3112 249.449 79.3112C247.412 79.3112 245.623 78.837 244.082 77.8886C242.548 76.9403 241.351 75.5919 240.492 73.8433C239.64 72.0948 239.214 70.0203 239.214 67.6198C239.214 65.812 239.458 64.1894 239.947 62.752C240.444 61.3073 241.144 60.0774 242.048 59.0623C242.952 58.0473 244.015 57.2731 245.237 56.7396C246.467 56.1988 247.816 55.9283 249.283 55.9283C250.498 55.9283 251.631 56.1098 252.684 56.4729C253.736 56.8359 254.673 57.3471 255.495 58.0066C256.325 58.666 257.014 59.4513 257.562 60.3626C258.111 61.2739 258.485 62.2853 258.685 63.3966H255.495ZM263.364 79V56.2395H277.367V58.9401H266.464V66.2528H276.644V68.9534H266.464V76.2994H277.522V79H263.364Z" fill="#BBBBBB"/>
</svg>
